<?xml version="1.0" encoding="iso-8859-1"?>
<!-- Generator: Adobe Illustrator 19.0.0, SVG Export Plug-In . SVG Version: 6.00 Build 0)  -->
<svg version="1.1" id="Capa_1" xmlns="http://www.w3.org/2000/svg" xmlns:xlink="http://www.w3.org/1999/xlink" x="0px" y="0px"
	 viewBox="0 0 512 512" style="enable-background:new 0 0 512 512;" xml:space="preserve">
<g>
	<g>
		<g>
			<path d="M448,0h-32v32h32c17.673,0,32,14.327,32,32v384c0,17.673-14.327,32-32,32H64c-17.673,0-32-14.327-32-32V64
				c0-17.673,14.327-32,32-32h192V0H64C28.654,0,0,28.654,0,64v384c0,35.346,28.654,64,64,64h384c35.346,0,64-28.654,64-64V64
				C512,28.654,483.346,0,448,0z"/>
			<rect x="352" width="32" height="32"/>
			<rect x="288" width="32" height="32"/>
			<path d="M80,256c0,44.183,35.817,80,80,80s80-35.817,80-80c0-44.183-35.817-80-80-80C115.839,176.053,80.053,211.839,80,256z
				 M208,256c0,26.51-21.49,48-48,48c-26.51,0-48-21.49-48-48c0-26.51,21.49-48,48-48C186.51,208,208,229.49,208,256z"/>
			<path d="M352,336c44.183,0,80-35.817,80-80c0-44.183-35.817-80-80-80c-44.183,0-80,35.817-80,80
				C272.053,300.161,307.839,335.947,352,336z M352,208c26.51,0,48,21.49,48,48c0,26.51-21.49,48-48,48c-26.51,0-48-21.49-48-48
				C304,229.49,325.49,208,352,208z"/>
		</g>
	</g>
</g>
<g>
</g>
<g>
</g>
<g>
</g>
<g>
</g>
<g>
</g>
<g>
</g>
<g>
</g>
<g>
</g>
<g>
</g>
<g>
</g>
<g>
</g>
<g>
</g>
<g>
</g>
<g>
</g>
<g>
</g>
</svg>
